<?xml version="1.0" standalone="no"?><!DOCTYPE svg PUBLIC "-//W3C//DTD SVG 1.1//EN" "http://www.w3.org/Graphics/SVG/1.1/DTD/svg11.dtd"><svg t="1568320188889" class="icon" viewBox="0 0 1024 1024" version="1.1" xmlns="http://www.w3.org/2000/svg" p-id="1921" xmlns:xlink="http://www.w3.org/1999/xlink" width="200" height="200"><defs><style type="text/css"></style></defs><path d="M931.921265 369.274761q10.270074 47.991002-2.271574 116.554146-49.718678 253.680435-322.787477 253.680435l-25.147285 0q-14.269325 0-25.147285 9.43823t-13.725426 24.283447l-2.271574 10.845966-31.418109 197.690933-1.151784 8.574392q-2.847466 14.845217-14.013372 24.283447t-25.435231 9.43823l-143.397113 0q-11.99775 0-18.844467-8.574392t-5.151034-20.572143q5.151034-31.994001 15.133163-95.982003t15.133163-95.982003 15.421109-95.694057 15.421109-95.694057q2.847466-21.148035 24.571393-21.148035l74.833969 0q75.985753 1.151784 134.822721-11.99775 99.981254-22.267825 163.969256-82.256577 58.261076-54.261826 88.559395-140.549647 13.725426-39.992501 19.996251-75.985753 0.575892-3.423358 1.43973-4.287196t2.015622-0.575892 3.423358 2.015622q45.143536 33.721677 55.989502 92.558645zM833.667687 208.152971q0 61.140536-26.267075 134.822721-45.719428 133.127039-172.543648 179.966256-64.563894 22.843717-143.973005 23.995501 0 0.575892-51.41436 0.575892l-51.41436-0.575892q-57.141286 0-67.41136 54.837718-1.151784 4.575142-48.566894 302.791227-0.575892 5.726926-6.846716 5.726926l-168.544398 0q-12.573642 0-20.860089-9.43823t-6.55877-22.011873l132.551147-840.418422q2.847466-16.572893 15.709055-27.418859t29.434481-10.845966l341.663938 0q19.420359 0 55.701556 7.422608t63.700056 18.268575q61.140536 23.419609 93.422483 70.258826t32.281947 111.979004z" p-id="1922"></path></svg>